<svg xmlns="http://www.w3.org/2000/svg"
  xmlns:xlink="http://www.w3.org/1999/xlink" width="31.001" height="31" viewBox="0 0 31.001 31">
  <defs>
    <clipPath id="clip-path">
      <rect id="Rectangle_4" data-name="Rectangle 4" width="31" height="31" fill="none"/>
    </clipPath>
  </defs>
  <g id="ベクトルスマートオブジェクト" transform="translate(-287.999 -5578)">
    <g id="ベクトルスマートオブジェクト-2" data-name="ベクトルスマートオブジェクト" transform="translate(288 5578)">
      <g id="Group_8" data-name="Group 8">
        <g id="Group_7" data-name="Group 7" clip-path="url(#clip-path)">
          <path id="Path_4" data-name="Path 4" d="M31,15.234A15.5,15.5,0,1,0,12.834,30.9V20.663H8.994V16.189h3.84V13.325c0-5.541,3.491-7.017,9.172-6.122v3.988H19.421c-1.335,0-1.927.605-1.927,2.134v2.864h4.344L21.3,20.663h-3.8V31A15.546,15.546,0,0,0,31,15.234"/>
        </g>
      </g>
    </g>
    <path id="Color_Overlay" data-name="Color Overlay" d="M305.495,5598.663h3.8l.541-4.474h-4.344v-2.864c0-1.529.591-2.134,1.926-2.134h2.586V5585.2c-5.68-.9-9.172.58-9.172,6.122v2.864h-3.84v4.474h3.84V5608.9A15.559,15.559,0,1,1,319,5593.234c0,.058,0,.117,0,.174v.318A15.544,15.544,0,0,1,305.495,5609Z" fill="#1877f2"/>
  </g>
</svg>
