<svg xmlns="http://www.w3.org/2000/svg" width="1505" height="449" viewBox="0 0 1505 449">
  <g id="mesh" transform="translate(-47 -2942)" opacity="0.302">
    <rect id="長方形_7" data-name="長方形 7" width="1" height="449" transform="translate(47 2942)" fill="#698c00"/>
    <rect id="長方形_7-2" data-name="長方形 7" width="1" height="449" transform="translate(79 2942)" fill="#698c00"/>
    <rect id="長方形_7-3" data-name="長方形 7" width="1" height="449" transform="translate(111 2942)" fill="#698c00"/>
    <rect id="長方形_7-4" data-name="長方形 7" width="1" height="449" transform="translate(143 2942)" fill="#698c00"/>
    <rect id="長方形_7-5" data-name="長方形 7" width="1" height="449" transform="translate(175 2942)" fill="#698c00"/>
    <rect id="長方形_7-6" data-name="長方形 7" width="1" height="449" transform="translate(207 2942)" fill="#698c00"/>
    <rect id="長方形_7-7" data-name="長方形 7" width="1" height="449" transform="translate(239 2942)" fill="#698c00"/>
    <rect id="長方形_7-8" data-name="長方形 7" width="1" height="449" transform="translate(271 2942)" fill="#698c00"/>
    <rect id="長方形_7-9" data-name="長方形 7" width="1" height="449" transform="translate(303 2942)" fill="#698c00"/>
    <rect id="長方形_7-10" data-name="長方形 7" width="1" height="449" transform="translate(335 2942)" fill="#698c00"/>
    <rect id="長方形_7-11" data-name="長方形 7" width="1" height="449" transform="translate(367 2942)" fill="#698c00"/>
    <rect id="長方形_7-12" data-name="長方形 7" width="1" height="449" transform="translate(399 2942)" fill="#698c00"/>
    <rect id="長方形_7-13" data-name="長方形 7" width="1" height="449" transform="translate(431 2942)" fill="#698c00"/>
    <rect id="長方形_7-14" data-name="長方形 7" width="1" height="449" transform="translate(463 2942)" fill="#698c00"/>
    <rect id="長方形_7-15" data-name="長方形 7" width="1" height="449" transform="translate(495 2942)" fill="#698c00"/>
    <rect id="長方形_7-16" data-name="長方形 7" width="1" height="449" transform="translate(527 2942)" fill="#698c00"/>
    <rect id="長方形_7-17" data-name="長方形 7" width="1" height="449" transform="translate(559 2942)" fill="#698c00"/>
    <rect id="長方形_7-18" data-name="長方形 7" width="1" height="449" transform="translate(591 2942)" fill="#698c00"/>
    <rect id="長方形_7-19" data-name="長方形 7" width="1" height="449" transform="translate(623 2942)" fill="#698c00"/>
    <rect id="長方形_7-20" data-name="長方形 7" width="1" height="449" transform="translate(655 2942)" fill="#698c00"/>
    <rect id="長方形_7-21" data-name="長方形 7" width="1" height="449" transform="translate(687 2942)" fill="#698c00"/>
    <rect id="長方形_7-22" data-name="長方形 7" width="1" height="449" transform="translate(719 2942)" fill="#698c00"/>
    <rect id="長方形_7-23" data-name="長方形 7" width="1" height="449" transform="translate(751 2942)" fill="#698c00"/>
    <rect id="長方形_7-24" data-name="長方形 7" width="1" height="449" transform="translate(783 2942)" fill="#698c00"/>
    <rect id="長方形_7-25" data-name="長方形 7" width="1" height="449" transform="translate(815 2942)" fill="#698c00"/>
    <rect id="長方形_7-26" data-name="長方形 7" width="1" height="449" transform="translate(847 2942)" fill="#698c00"/>
    <rect id="長方形_7-27" data-name="長方形 7" width="1" height="449" transform="translate(879 2942)" fill="#698c00"/>
    <rect id="長方形_7-28" data-name="長方形 7" width="1" height="449" transform="translate(911 2942)" fill="#698c00"/>
    <rect id="長方形_7-29" data-name="長方形 7" width="1" height="449" transform="translate(943 2942)" fill="#698c00"/>
    <rect id="長方形_7-30" data-name="長方形 7" width="1" height="449" transform="translate(975 2942)" fill="#698c00"/>
    <rect id="長方形_7-31" data-name="長方形 7" width="1" height="449" transform="translate(1007 2942)" fill="#698c00"/>
    <rect id="長方形_7-32" data-name="長方形 7" width="1" height="449" transform="translate(1039 2942)" fill="#698c00"/>
    <rect id="長方形_7-33" data-name="長方形 7" width="1" height="449" transform="translate(1071 2942)" fill="#698c00"/>
    <rect id="長方形_7-34" data-name="長方形 7" width="1" height="449" transform="translate(1103 2942)" fill="#698c00"/>
    <rect id="長方形_7-35" data-name="長方形 7" width="1" height="449" transform="translate(1135 2942)" fill="#698c00"/>
    <rect id="長方形_7-36" data-name="長方形 7" width="1" height="449" transform="translate(1167 2942)" fill="#698c00"/>
    <rect id="長方形_7-37" data-name="長方形 7" width="1" height="449" transform="translate(1199 2942)" fill="#698c00"/>
    <rect id="長方形_7-38" data-name="長方形 7" width="1" height="449" transform="translate(1231 2942)" fill="#698c00"/>
    <rect id="長方形_7-39" data-name="長方形 7" width="1" height="449" transform="translate(1263 2942)" fill="#698c00"/>
    <rect id="長方形_7-40" data-name="長方形 7" width="1" height="449" transform="translate(1295 2942)" fill="#698c00"/>
    <rect id="長方形_7-41" data-name="長方形 7" width="1" height="449" transform="translate(1327 2942)" fill="#698c00"/>
    <rect id="長方形_7-42" data-name="長方形 7" width="1" height="449" transform="translate(1359 2942)" fill="#698c00"/>
    <rect id="長方形_7-43" data-name="長方形 7" width="1" height="449" transform="translate(1391 2942)" fill="#698c00"/>
    <rect id="長方形_7-44" data-name="長方形 7" width="1" height="449" transform="translate(1423 2942)" fill="#698c00"/>
    <rect id="長方形_7-45" data-name="長方形 7" width="1" height="449" transform="translate(1455 2942)" fill="#698c00"/>
    <rect id="長方形_7-46" data-name="長方形 7" width="1" height="449" transform="translate(1487 2942)" fill="#698c00"/>
    <rect id="長方形_7-47" data-name="長方形 7" width="1" height="449" transform="translate(1519 2942)" fill="#698c00"/>
    <rect id="長方形_7-48" data-name="長方形 7" width="1" height="449" transform="translate(1551 2942)" fill="#698c00"/>
    <rect id="長方形_7-49" data-name="長方形 7" width="1505" height="1" transform="translate(47 2942)" fill="#698c00"/>
    <rect id="長方形_7-50" data-name="長方形 7" width="1505" height="1" transform="translate(47 2974)" fill="#698c00"/>
    <rect id="長方形_7-51" data-name="長方形 7" width="1505" height="1" transform="translate(47 3006)" fill="#698c00"/>
    <rect id="長方形_7-52" data-name="長方形 7" width="1505" height="1" transform="translate(47 3038)" fill="#698c00"/>
    <rect id="長方形_7-53" data-name="長方形 7" width="1505" height="1" transform="translate(47 3070)" fill="#698c00"/>
    <rect id="長方形_7-54" data-name="長方形 7" width="1505" height="1" transform="translate(47 3102)" fill="#698c00"/>
    <rect id="長方形_7-55" data-name="長方形 7" width="1505" height="1" transform="translate(47 3134)" fill="#698c00"/>
    <rect id="長方形_7-56" data-name="長方形 7" width="1505" height="1" transform="translate(47 3166)" fill="#698c00"/>
    <rect id="長方形_7-57" data-name="長方形 7" width="1505" height="1" transform="translate(47 3198)" fill="#698c00"/>
    <rect id="長方形_7-58" data-name="長方形 7" width="1505" height="1" transform="translate(47 3230)" fill="#698c00"/>
    <rect id="長方形_7-59" data-name="長方形 7" width="1505" height="1" transform="translate(47 3262)" fill="#698c00"/>
    <rect id="長方形_7-60" data-name="長方形 7" width="1505" height="1" transform="translate(47 3294)" fill="#698c00"/>
    <rect id="長方形_7-61" data-name="長方形 7" width="1505" height="1" transform="translate(47 3326)" fill="#698c00"/>
    <rect id="長方形_7-62" data-name="長方形 7" width="1505" height="1" transform="translate(47 3358)" fill="#698c00"/>
    <rect id="長方形_7-63" data-name="長方形 7" width="1505" height="1" transform="translate(47 3390)" fill="#698c00"/>
  </g>
</svg>
