<svg xmlns="http://www.w3.org/2000/svg" width="1505" height="577" viewBox="0 0 1505 577">
  <g id="mesh" transform="translate(-47 -3829)" opacity="0.302">
    <rect id="長方形_7" data-name="長方形 7" width="1" height="577" transform="translate(47 3829)" fill="#698c00"/>
    <rect id="長方形_7-2" data-name="長方形 7" width="1" height="577" transform="translate(79 3829)" fill="#698c00"/>
    <rect id="長方形_7-3" data-name="長方形 7" width="1" height="577" transform="translate(111 3829)" fill="#698c00"/>
    <rect id="長方形_7-4" data-name="長方形 7" width="1" height="577" transform="translate(143 3829)" fill="#698c00"/>
    <rect id="長方形_7-5" data-name="長方形 7" width="1" height="577" transform="translate(175 3829)" fill="#698c00"/>
    <rect id="長方形_7-6" data-name="長方形 7" width="1" height="577" transform="translate(207 3829)" fill="#698c00"/>
    <rect id="長方形_7-7" data-name="長方形 7" width="1" height="577" transform="translate(239 3829)" fill="#698c00"/>
    <rect id="長方形_7-8" data-name="長方形 7" width="1" height="577" transform="translate(271 3829)" fill="#698c00"/>
    <rect id="長方形_7-9" data-name="長方形 7" width="1" height="577" transform="translate(303 3829)" fill="#698c00"/>
    <rect id="長方形_7-10" data-name="長方形 7" width="1" height="577" transform="translate(335 3829)" fill="#698c00"/>
    <rect id="長方形_7-11" data-name="長方形 7" width="1" height="577" transform="translate(367 3829)" fill="#698c00"/>
    <rect id="長方形_7-12" data-name="長方形 7" width="1" height="577" transform="translate(399 3829)" fill="#698c00"/>
    <rect id="長方形_7-13" data-name="長方形 7" width="1" height="577" transform="translate(431 3829)" fill="#698c00"/>
    <rect id="長方形_7-14" data-name="長方形 7" width="1" height="577" transform="translate(463 3829)" fill="#698c00"/>
    <rect id="長方形_7-15" data-name="長方形 7" width="1" height="577" transform="translate(495 3829)" fill="#698c00"/>
    <rect id="長方形_7-16" data-name="長方形 7" width="1" height="577" transform="translate(527 3829)" fill="#698c00"/>
    <rect id="長方形_7-17" data-name="長方形 7" width="1" height="577" transform="translate(559 3829)" fill="#698c00"/>
    <rect id="長方形_7-18" data-name="長方形 7" width="1" height="577" transform="translate(591 3829)" fill="#698c00"/>
    <rect id="長方形_7-19" data-name="長方形 7" width="1" height="577" transform="translate(623 3829)" fill="#698c00"/>
    <rect id="長方形_7-20" data-name="長方形 7" width="1" height="577" transform="translate(655 3829)" fill="#698c00"/>
    <rect id="長方形_7-21" data-name="長方形 7" width="1" height="577" transform="translate(687 3829)" fill="#698c00"/>
    <rect id="長方形_7-22" data-name="長方形 7" width="1" height="577" transform="translate(719 3829)" fill="#698c00"/>
    <rect id="長方形_7-23" data-name="長方形 7" width="1" height="577" transform="translate(751 3829)" fill="#698c00"/>
    <rect id="長方形_7-24" data-name="長方形 7" width="1" height="577" transform="translate(783 3829)" fill="#698c00"/>
    <rect id="長方形_7-25" data-name="長方形 7" width="1" height="577" transform="translate(815 3829)" fill="#698c00"/>
    <rect id="長方形_7-26" data-name="長方形 7" width="1" height="577" transform="translate(847 3829)" fill="#698c00"/>
    <rect id="長方形_7-27" data-name="長方形 7" width="1" height="577" transform="translate(879 3829)" fill="#698c00"/>
    <rect id="長方形_7-28" data-name="長方形 7" width="1" height="577" transform="translate(911 3829)" fill="#698c00"/>
    <rect id="長方形_7-29" data-name="長方形 7" width="1" height="577" transform="translate(943 3829)" fill="#698c00"/>
    <rect id="長方形_7-30" data-name="長方形 7" width="1" height="577" transform="translate(975 3829)" fill="#698c00"/>
    <rect id="長方形_7-31" data-name="長方形 7" width="1" height="577" transform="translate(1007 3829)" fill="#698c00"/>
    <rect id="長方形_7-32" data-name="長方形 7" width="1" height="577" transform="translate(1039 3829)" fill="#698c00"/>
    <rect id="長方形_7-33" data-name="長方形 7" width="1" height="577" transform="translate(1071 3829)" fill="#698c00"/>
    <rect id="長方形_7-34" data-name="長方形 7" width="1" height="577" transform="translate(1103 3829)" fill="#698c00"/>
    <rect id="長方形_7-35" data-name="長方形 7" width="1" height="577" transform="translate(1135 3829)" fill="#698c00"/>
    <rect id="長方形_7-36" data-name="長方形 7" width="1" height="577" transform="translate(1167 3829)" fill="#698c00"/>
    <rect id="長方形_7-37" data-name="長方形 7" width="1" height="577" transform="translate(1199 3829)" fill="#698c00"/>
    <rect id="長方形_7-38" data-name="長方形 7" width="1" height="577" transform="translate(1231 3829)" fill="#698c00"/>
    <rect id="長方形_7-39" data-name="長方形 7" width="1" height="577" transform="translate(1263 3829)" fill="#698c00"/>
    <rect id="長方形_7-40" data-name="長方形 7" width="1" height="577" transform="translate(1295 3829)" fill="#698c00"/>
    <rect id="長方形_7-41" data-name="長方形 7" width="1" height="577" transform="translate(1327 3829)" fill="#698c00"/>
    <rect id="長方形_7-42" data-name="長方形 7" width="1" height="577" transform="translate(1359 3829)" fill="#698c00"/>
    <rect id="長方形_7-43" data-name="長方形 7" width="1" height="577" transform="translate(1391 3829)" fill="#698c00"/>
    <rect id="長方形_7-44" data-name="長方形 7" width="1" height="577" transform="translate(1423 3829)" fill="#698c00"/>
    <rect id="長方形_7-45" data-name="長方形 7" width="1" height="577" transform="translate(1455 3829)" fill="#698c00"/>
    <rect id="長方形_7-46" data-name="長方形 7" width="1" height="577" transform="translate(1487 3829)" fill="#698c00"/>
    <rect id="長方形_7-47" data-name="長方形 7" width="1" height="577" transform="translate(1519 3829)" fill="#698c00"/>
    <rect id="長方形_7-48" data-name="長方形 7" width="1" height="577" transform="translate(1551 3829)" fill="#698c00"/>
    <rect id="長方形_7-49" data-name="長方形 7" width="1505" height="1" transform="translate(47 3829)" fill="#698c00"/>
    <rect id="長方形_7-50" data-name="長方形 7" width="1505" height="1" transform="translate(47 3861)" fill="#698c00"/>
    <rect id="長方形_7-51" data-name="長方形 7" width="1505" height="1" transform="translate(47 3893)" fill="#698c00"/>
    <rect id="長方形_7-52" data-name="長方形 7" width="1505" height="1" transform="translate(47 3925)" fill="#698c00"/>
    <rect id="長方形_7-53" data-name="長方形 7" width="1505" height="1" transform="translate(47 3957)" fill="#698c00"/>
    <rect id="長方形_7-54" data-name="長方形 7" width="1505" height="1" transform="translate(47 3989)" fill="#698c00"/>
    <rect id="長方形_7-55" data-name="長方形 7" width="1505" height="1" transform="translate(47 4021)" fill="#698c00"/>
    <rect id="長方形_7-56" data-name="長方形 7" width="1505" height="1" transform="translate(47 4053)" fill="#698c00"/>
    <rect id="長方形_7-57" data-name="長方形 7" width="1505" height="1" transform="translate(47 4085)" fill="#698c00"/>
    <rect id="長方形_7-58" data-name="長方形 7" width="1505" height="1" transform="translate(47 4117)" fill="#698c00"/>
    <rect id="長方形_7-59" data-name="長方形 7" width="1505" height="1" transform="translate(47 4149)" fill="#698c00"/>
    <rect id="長方形_7-60" data-name="長方形 7" width="1505" height="1" transform="translate(47 4181)" fill="#698c00"/>
    <rect id="長方形_7-61" data-name="長方形 7" width="1505" height="1" transform="translate(47 4213)" fill="#698c00"/>
    <rect id="長方形_7-62" data-name="長方形 7" width="1505" height="1" transform="translate(47 4245)" fill="#698c00"/>
    <rect id="長方形_7-63" data-name="長方形 7" width="1505" height="1" transform="translate(47 4277)" fill="#698c00"/>
    <rect id="長方形_7-64" data-name="長方形 7" width="1505" height="1" transform="translate(47 4309)" fill="#698c00"/>
    <rect id="長方形_7-65" data-name="長方形 7" width="1505" height="1" transform="translate(47 4341)" fill="#698c00"/>
    <rect id="長方形_7-66" data-name="長方形 7" width="1505" height="1" transform="translate(47 4373)" fill="#698c00"/>
    <rect id="長方形_7-67" data-name="長方形 7" width="1505" height="1" transform="translate(47 4405)" fill="#698c00"/>
  </g>
</svg>
